<?xml version="1.0" encoding="UTF-8"?>
<svg id="Layer_2" data-name="Layer 2" xmlns="http://www.w3.org/2000/svg" viewBox="0 0 33.71 33.72">
  <defs>
    <style>
      .cls-1 {
        fill: #e3dbd1;
      }
    </style>
  </defs>
  <g id="Layer_1-2" data-name="Layer 1">
    <g>
      <path class="cls-1" d="M29.78,16.04v3.67s-.06,2.74-.06,2.74c-.01.58-.07,1.13-.16,1.7-.14.88-.4,1.72-1.04,2.36-.95.94-2.25,1.38-3.59,1.22-.55-.07-1.05-.26-1.5-.58-.44-.31-.81-.67-1.17-1.07-.45-.5-.87-1.01-1.27-1.56l-1.74-2.4-6.1-8.61-1.42-1.96c-.39-.54-1.71-2.25-2.29-2.41-.66-.18-1.36.05-1.84.52-.39.39-.5,2.23-.51,2.8l-.05,2.73v2.48c-.01.65-.56,1.14-1.18,1.14-.63,0-1.17-.51-1.17-1.16v-2.97l.05-2.45c.01-.55.06-1.08.14-1.63.06-.46.15-.9.3-1.33.17-.51.43-.94.81-1.31,1-.97,2.4-1.4,3.78-1.15.49.09.91.29,1.31.58.42.3.79.65,1.14,1.04.39.43.75.85,1.09,1.32l1.63,2.22,6.44,9.1,1.61,2.2c.35.48,1.55,2,2.1,2.11.67.13,1.38-.08,1.83-.6.39-.44.48-2.6.48-3.24l.03-2.48v-3.01c0-.65.55-1.14,1.17-1.14.62,0,1.17.49,1.17,1.14"/>
      <path class="cls-1" d="M2.37,28.18c.19,1.96,1.95,3.37,3.88,3.16,1.93-.21,3.33-1.93,3.14-3.85-.19-1.93-1.91-3.35-3.85-3.16-1.93.18-3.37,1.9-3.17,3.86M0,28.14c-.17-3.25,2.34-6,5.55-6.18,3.24-.18,6.02,2.32,6.19,5.56.17,3.24-2.32,6.01-5.55,6.18C2.97,33.88.18,31.4,0,28.14"/>
      <path class="cls-1" d="M24.31,5.89c0,1.96,1.61,3.53,3.54,3.52,1.95-.01,3.51-1.59,3.51-3.53,0-1.95-1.59-3.53-3.55-3.52-1.93,0-3.52,1.58-3.51,3.54M21.97,6.26C21.75,3.01,24.23.22,27.46.01c3.23-.21,6.03,2.26,6.24,5.49.21,3.22-2.24,6.02-5.46,6.24-3.22.22-6.06-2.22-6.27-5.48"/>
    </g>
  </g>
</svg>