<?xml version="1.0" encoding="UTF-8"?>
<svg id="Layer_2" data-name="Layer 2" xmlns="http://www.w3.org/2000/svg" viewBox="0 0 30.58 33.71">
  <defs>
    <style>
      .cls-1 {
        fill: #e3dbd1;
      }
    </style>
  </defs>
  <g id="Layer_1-2" data-name="Layer 1">
    <path class="cls-1" d="M23.46,24.65l-6.7-11.54c-.97.29-1.97.29-2.94,0l-6.7,11.54c5.09,2.67,11.27,2.67,16.35,0M15.26,5.49c-1.53.01-2.74,1.27-2.72,2.77.02,1.51,1.26,2.73,2.77,2.71,1.51-.02,2.73-1.26,2.71-2.77-.01-1.5-1.25-2.73-2.77-2.71M21.51,28.02c-5.14,1.67-10.77,1.21-15.57-1.33l-3.75,6.45c-.33.56-1.05.73-1.59.42-.55-.32-.76-1.04-.43-1.6l3.76-6.48c-1.34-.93-2.55-2.01-3.62-3.23-.43-.49-.38-1.23.1-1.65.48-.43,1.2-.39,1.65.09l.51.55c.76.82,1.61,1.54,2.54,2.19l6.67-11.49c-1.4-1.35-1.94-3.33-1.35-5.22.51-1.66,1.92-3.02,3.68-3.43V1.18C14.11.51,14.66,0,15.3,0c.65,0,1.17.53,1.17,1.2v2.08c1.75.4,3.16,1.75,3.68,3.41.59,1.9.06,3.88-1.35,5.24l6.67,11.49c.94-.65,1.79-1.38,2.57-2.21l.49-.53c.44-.48,1.18-.52,1.65-.09.49.44.53,1.17.09,1.67l-.59.64c-.9.98-1.92,1.8-3.02,2.57l3.74,6.44c.34.58.17,1.31-.41,1.65-.59.34-1.3.11-1.64-.48l-3.68-6.33s-.03-.04-.05-.03c-.99.52-2.05.97-3.12,1.32"/>
  </g>
</svg>