<?xml version="1.0" encoding="UTF-8"?>
<svg id="Layer_2" data-name="Layer 2" xmlns="http://www.w3.org/2000/svg" viewBox="0 0 33.71 33.71">
  <defs>
    <style>
      .cls-1 {
        fill: #e3dbd1;
      }
    </style>
  </defs>
  <g id="Layer_1-2" data-name="Layer 1">
    <g>
      <path class="cls-1" d="M16.83,5.48c-6.28.01-11.37,5.16-11.35,11.41.02,6.25,5.14,11.35,11.4,11.34,6.26-.01,11.36-5.14,11.35-11.4-.01-6.24-5.12-11.36-11.39-11.35M15.68,32.54v-2.02c-6.63-.55-11.94-5.87-12.49-12.49H1.16C.51,18.01,0,17.49,0,16.86c0-.64.5-1.17,1.16-1.19h2.03c.55-6.62,5.86-11.94,12.49-12.49V1.18C15.69.52,16.2,0,16.84,0c.64,0,1.17.5,1.19,1.16v2.03c6.62.55,11.94,5.86,12.49,12.5h2.03c.65.01,1.15.53,1.16,1.16,0,.63-.5,1.18-1.16,1.18h-1.96s-.06-.02-.07.06c-.38,4.43-2.96,8.46-6.85,10.67-.45.26-.87.48-1.35.69-1.35.57-2.77.95-4.24,1.07-.02,0-.04.03-.04.05v1.97c0,.65-.53,1.17-1.17,1.18-.64,0-1.17-.5-1.19-1.16"/>
      <path class="cls-1" d="M16.6,13.34c-1.96.14-3.41,1.85-3.27,3.78.15,1.94,1.83,3.39,3.77,3.25,1.94-.14,3.41-1.83,3.27-3.77-.14-1.93-1.81-3.41-3.77-3.27M16.81,10.98c3.26-.02,5.9,2.61,5.92,5.84.02,3.24-2.6,5.9-5.84,5.92-3.23.02-5.89-2.59-5.92-5.82-.03-3.23,2.57-5.91,5.84-5.93"/>
    </g>
  </g>
</svg>