<?xml version="1.0" encoding="UTF-8"?>
<svg id="Layer_2" data-name="Layer 2" xmlns="http://www.w3.org/2000/svg" viewBox="0 0 374.43 45.93">
  <defs>
    <style>
      .cls-1 {
        fill: #f1ecdf;
      }
    </style>
  </defs>
  <g id="Layer_1-2" data-name="Layer 1">
    <g>
      <g>
        <g>
          <g>
            <path class="cls-1" d="M181.37,0v2.11h0v.05h.7c1.28.13,3.9.51,4.23,1.61,0,0,0,0,.01,0v35.05s0,0-.01,0c-.27.9-2.06,1.32-3.4,1.51h-1.53v.15h0v2.01h12.06v-2.17h-1.53c-1.35-.19-3.14-.62-3.4-1.51,0,0,0,0-.01,0V3.78s0,0,.01,0c.33-1.1,2.95-1.49,4.23-1.61h.7V0h-12.06Z"/>
            <path class="cls-1" d="M166.14,27.29h2.17v-.7c.13-1.28.51-3.9,1.61-4.23,0,0,0,0,0-.01h35.05s0,0,0,.01c.9.27,1.32,2.06,1.51,3.4v1.53h2.17v-12.06h-2.17v1.53c-.19,1.35-.62,3.14-1.51,3.4,0,0,0,0,0,.01h-35.05s0,0,0-.01c-1.1-.33-1.49-2.95-1.61-4.23v-.7h-2.17v12.06Z"/>
          </g>
          <g>
            <path class="cls-1" d="M168.1,10.49l1.49,1.49h0s.04.04.04.04l.5-.5c1-.82,3.12-2.39,4.13-1.85,0,0,0,0,.01,0l24.78,24.78s0,0,0,.01c.44.82-.52,2.39-1.34,3.48l-1.08,1.08.11.11h0l1.42,1.42,8.53-8.53-1.53-1.53-1.08,1.08c-1.09.82-2.65,1.78-3.48,1.34,0,0,0,0-.01,0l-24.78-24.78s0,0,0-.01c-.54-1.01,1.03-3.14,1.85-4.13l.5-.5-1.53-1.53-8.53,8.53Z"/>
            <path class="cls-1" d="M176.63,40.55l1.49-1.49h0s.04-.04.04-.04l-.5-.5c-.82-1-2.39-3.12-1.85-4.13,0,0,0,0,0-.01l24.78-24.78s0,0,.01,0c.82-.44,2.39.52,3.48,1.34l1.08,1.08.11-.11h0l1.42-1.42-8.53-8.53-1.53,1.53,1.08,1.08c.82,1.09,1.78,2.65,1.34,3.48,0,0,0,0,0,.01l-24.78,24.78s0,0-.01,0c-1.01.54-3.14-1.03-4.13-1.85l-.5-.5-1.53,1.53,8.53,8.53Z"/>
          </g>
        </g>
        <g>
          <path class="cls-1" d="M241.15,5.26c1.58,0,2.84.33,4.29,1.58l-1.16,1.77c-.75-.7-1.68-1.16-2.89-1.16-2.56,0-3.87,1.77-3.87,4.8v2.05h4.57v2.14h-10.76v-2.14h3.73v-2.05c0-4.38,2.33-6.99,6.1-6.99ZM237.52,36.79h-2.47v-19.19h2.47v19.19Z"/>
          <path class="cls-1" d="M259.74,32.79v2.75c-1.82,1.35-3.96,1.82-6.48,1.82-3.87,0-7.87-2.66-7.87-7.5s4.1-7.73,8.71-7.73c2.61,0,4.52.7,5.64,1.26v2.89c-1.68-1.12-3.82-1.82-5.64-1.82-3.68,0-6.15,2.24-6.15,5.45s2.47,5.17,6.15,5.17c1.86,0,4.19-1.07,5.64-2.28ZM255.03,15.92c-2.84,0-4.94,1.3-6.94,3.35l-1.63-1.77c2.33-2.52,4.94-3.77,8.67-3.77,4.57,0,8.2,2.19,8.2,7.22v15.84h-2.42v-15.75c0-3.35-2.56-5.12-5.87-5.12Z"/>
          <path class="cls-1" d="M286.29,31.16v3.4c-1.68,1.63-4.01,2.8-6.66,2.8-5.96,0-10.02-4.61-10.02-11.83s4.05-11.79,10.02-11.79c2.61,0,4.85.61,6.66,1.86v2.98c-1.63-1.54-4.05-2.66-6.48-2.66-4.98,0-7.64,4.15-7.64,9.6s2.89,9.46,7.87,9.46c2.38,0,4.71-1.91,6.24-3.82ZM270.92,42.52l1.4-1.96c1.96,2.33,4.66,3.07,7.5,3.07,4.05,0,7.64-1.96,7.64-7.03V14.29h2.47v22.31c0,6.85-4.66,9.32-10.11,9.32-3.82,0-6.24-.7-8.9-3.4Z"/>
          <path class="cls-1" d="M297.42,30.55V14.29h2.52v15.65c0,3.21,2.14,4.85,5.4,4.85,1.86,0,4.52-1.54,6.01-2.98v3.07c-1.49,1.07-3.91,2.42-6.48,2.42-4.15,0-7.45-2.98-7.45-6.75ZM312.52,36.79V14.29h2.52v22.5h-2.52Z"/>
          <path class="cls-1" d="M325,36.79h-2.42V5.72h2.42v31.07Z"/>
          <path class="cls-1" d="M334.97,5.72v31.07h-2.42V5.72h2.42ZM342.28,15.92c-2.28,0-4.57,1.12-6.15,2.56v-2.75c2.33-1.58,4.1-2.1,6.94-2.1,4.57,0,7.08,2.24,7.08,7.31v15.84h-2.42v-15.33c0-4.33-2.19-5.54-5.45-5.54Z"/>
          <path class="cls-1" d="M370.84,32.79v2.75c-1.82,1.35-3.96,1.82-6.48,1.82-3.87,0-7.87-2.66-7.87-7.5s4.1-7.73,8.71-7.73c2.61,0,4.52.7,5.64,1.26v2.89c-1.68-1.12-3.82-1.82-5.64-1.82-3.68,0-6.15,2.24-6.15,5.45s2.47,5.17,6.15,5.17c1.86,0,4.19-1.07,5.64-2.28ZM366.14,15.92c-2.84,0-4.94,1.3-6.94,3.35l-1.63-1.77c2.33-2.52,4.94-3.77,8.66-3.77,4.57,0,8.2,2.19,8.2,7.22v15.84h-2.42v-15.75c0-3.35-2.56-5.12-5.87-5.12Z"/>
        </g>
        <g>
          <path class="cls-1" d="M10.11,13.78v2.05C.05,16.48-.28,33.91,10.11,35.16v2.14c-6.01-.51-10.11-5.22-10.11-11.79s4.15-11.41,10.11-11.74ZM11.27,15.83v-2.1c6.48.28,10.06,5.59,10.06,11.93v.65H3.73s-.14-.79,0-1.91h15.14c-.05-3.68-2.38-8.25-7.59-8.57ZM11.27,37.35v-2.1h.05c2.84,0,5.45-1.07,7.36-3.12l1.26,1.58c-2.24,2.33-5.03,3.59-8.66,3.63Z"/>
          <path class="cls-1" d="M33.73,35.3v2.05c-3.35-.14-6.01-1.21-8.11-3.59l1.44-1.77c1.35,1.72,3.77,3.12,6.66,3.31ZM34.89,37.35v-2.05c3.4-.19,5.45-2.1,5.45-4.57,0-6.15-14.21-2.66-14.21-10.76,0-3.35,2.75-6.1,7.59-6.24v2.05c-3.26.14-5.17,1.86-5.17,4.1,0,5.64,14.16,2.19,14.16,10.85,0,3.49-2.61,6.38-7.83,6.62ZM34.89,15.83v-2.05c3.45.19,5.78,1.58,7.31,3.26l-1.35,1.72c-1.21-1.63-3.35-2.75-5.96-2.93Z"/>
          <path class="cls-1" d="M49.43,8.14h2.47v6.15h4.57v2.14h-10.76v-2.14h3.73v-6.15ZM49.43,32.46v-14.86h2.47v14.49c0,1.82.75,3.07,2.33,3.07,1.07,0,2-.51,2.52-1.07l.93,1.86c-.89.84-1.96,1.4-3.82,1.4-2.98,0-4.43-1.82-4.43-4.89Z"/>
          <path class="cls-1" d="M61.77,30.55V14.29h2.52v15.65c0,3.21,2.14,4.85,5.4,4.85,1.86,0,4.52-1.54,6.01-2.98v3.07c-1.49,1.07-3.91,2.42-6.48,2.42-4.15,0-7.45-2.98-7.45-6.75ZM76.86,36.79V14.29h2.52v22.5h-2.52Z"/>
          <path class="cls-1" d="M88.23,25.57c0,5.45,2.84,9.22,7.87,9.22,2.42,0,4.71-.84,6.24-2.33v3.12c-1.72,1.3-3.96,1.77-6.66,1.77-5.96,0-10.06-4.57-10.06-11.79s4.05-11.83,10.06-11.83c2.56,0,4.89.79,6.66,2.1v3.17c-1.54-1.54-4.05-2.61-6.34-2.61-5.03,0-7.78,3.73-7.78,9.18ZM105.93,36.79h-2.42V5.72h2.42v31.07Z"/>
          <path class="cls-1" d="M113.53,10.75v-3.68h2.42v3.68h-2.42ZM115.95,36.79h-2.42V14.29h2.42v22.5Z"/>
          <path class="cls-1" d="M132.35,13.73v2.24c-4.84.33-7.55,4.75-7.55,9.55s2.7,9.27,7.55,9.64v2.19c-6.24-.33-10.11-5.45-10.11-11.83s3.87-11.46,10.11-11.79ZM133.6,37.35v-2.19c4.94-.28,7.64-4.8,7.64-9.64s-2.7-9.27-7.64-9.6v-2.19c6.34.28,10.25,5.4,10.25,11.79s-3.91,11.55-10.25,11.83Z"/>
          <rect class="cls-1" x="67.33" y="9.49" width="10.67" height="2.52" transform="translate(-.79 10.09) rotate(-7.9)"/>
        </g>
      </g>
      <g>
        <g>
          <path class="cls-1" d="M181.37,0v2.11h0v.05h.7c1.28.13,3.9.51,4.23,1.61,0,0,0,0,.01,0v35.05s0,0-.01,0c-.27.9-2.06,1.32-3.4,1.51h-1.53v.15h0v2.01h12.06v-2.17h-1.53c-1.35-.19-3.14-.62-3.4-1.51,0,0,0,0-.01,0V3.78s0,0,.01,0c.33-1.1,2.95-1.49,4.23-1.61h.7V0h-12.06Z"/>
          <path class="cls-1" d="M166.14,27.29h2.17v-.7c.13-1.28.51-3.9,1.61-4.23,0,0,0,0,0-.01h35.05s0,0,0,.01c.9.27,1.32,2.06,1.51,3.4v1.53h2.17v-12.06h-2.17v1.53c-.19,1.35-.62,3.14-1.51,3.4,0,0,0,0,0,.01h-35.05s0,0,0-.01c-1.1-.33-1.49-2.95-1.61-4.23v-.7h-2.17v12.06Z"/>
        </g>
        <g>
          <path class="cls-1" d="M168.1,10.49l1.49,1.49h0s.04.04.04.04l.5-.5c1-.82,3.12-2.39,4.13-1.85,0,0,0,0,.01,0l24.78,24.78s0,0,0,.01c.44.82-.52,2.39-1.34,3.48l-1.08,1.08.11.11h0l1.42,1.42,8.53-8.53-1.53-1.53-1.08,1.08c-1.09.82-2.65,1.78-3.48,1.34,0,0,0,0-.01,0l-24.78-24.78s0,0,0-.01c-.54-1.01,1.03-3.14,1.85-4.13l.5-.5-1.53-1.53-8.53,8.53Z"/>
          <path class="cls-1" d="M176.63,40.55l1.49-1.49h0s.04-.04.04-.04l-.5-.5c-.82-1-2.39-3.12-1.85-4.13,0,0,0,0,0-.01l24.78-24.78s0,0,.01,0c.82-.44,2.39.52,3.48,1.34l1.08,1.08.11-.11h0l1.42-1.42-8.53-8.53-1.53,1.53,1.08,1.08c.82,1.09,1.78,2.65,1.34,3.48,0,0,0,0,0,.01l-24.78,24.78s0,0-.01,0c-1.01.54-3.14-1.03-4.13-1.85l-.5-.5-1.53,1.53,8.53,8.53Z"/>
        </g>
      </g>
    </g>
  </g>
</svg>