<?xml version="1.0" encoding="UTF-8"?>
<svg id="Layer_2" data-name="Layer 2" xmlns="http://www.w3.org/2000/svg" viewBox="0 0 576.17 470.86">
  <defs>
    <style>
      .cls-1 {
        fill: #ab4c41;
      }

      .cls-2 {
        font-family: PlayfairDisplay-ExtraBoldItalic, 'Playfair Display';
        font-size: 95.93px;
        font-style: italic;
        font-weight: 700;
        letter-spacing: 0em;
      }

      .cls-2, .cls-3 {
        fill: #21516b;
      }

      .cls-4 {
        fill: none;
        stroke: #b2a394;
        stroke-miterlimit: 10;
        stroke-width: .3px;
      }

      .cls-3 {
        font-family: NeurialGrotesk-Regular, 'Neurial Grotesk';
        font-size: 71.84px;
        letter-spacing: 0em;
      }

      .cls-5 {
        fill: #f1ecdf;
      }
    </style>
  </defs>
  <g id="Layer_1-2" data-name="Layer 1">
    <g>
      <rect class="cls-1" y="98.31" width="323.13" height="274.24"/>
      <g>
        <path class="cls-4" d="M459.98,388.64l-126.63-110.44,27.53-31.81,126.78,110.57c5.56,9.56-.86,22.14-5.55,30.72-3.8,6.95-9.46,12.52-14.65,18.45-8.46,9.68-16.93,19.36-25.39,29.03,9.03-10.37,26.76-31.26,17.91-46.52h0Z"/>
        <path class="cls-4" d="M394.96,448l15.89.26,27.65-31.64c-14.92-.25-45.8-.12-53.75-16.42l-23.87-153.81-27.53,31.81,23.81,153.66c5.81,11.91,26.38,14.33,37.8,16.14Z"/>
        <polygon class="cls-4" points="410.85 448.27 414.29 470.52 441.95 438.9 438.5 416.63 410.85 448.27 410.85 448.27"/>
        <polygon class="cls-4" points="414.29 470.52 288.81 468.48 316.35 436.83 441.95 438.9 414.29 470.52 414.29 470.52"/>
        <path class="cls-4" d="M285.63,447.78l-.24-1.58,27.53-31.67c1.14,7.43,2.29,14.86,3.43,22.3l-27.54,31.65-3.18-20.69h0Z"/>
        <path class="cls-4" d="M334.49,431.44l-23.64-153.63,27.51-31.82,23.7,153.78c-4.27,16.61-36.74,14.97-49.14,14.76l-27.53,31.67c12.37.2,44.84,1.84,49.09-14.76h0Z"/>
        <path class="cls-4" d="M236.93,420.68l12.96,11.31,27.49-31.69c-9.35-8.15-17.83-15.91-24.93-26.12-3.84-5.52-9.98-14.06-7.49-21.23l93.39-106.95c-33.8,39.09-67.83,77.99-101.82,116.91-6.34,7.26-12.68,14.52-19.02,21.78-4.16,11.91,12.43,28.23,19.41,36h0Z"/>
        <path class="cls-4" d="M249.9,431.98l-13.54,15.49c13.66-15.74,27.31-31.49,41.03-47.18l-27.49,31.69h0Z"/>
        <polygon class="cls-4" points="236.36 447.47 134.06 358.26 161.42 326.47 263.84 415.79 236.36 447.47 236.36 447.47"/>
        <path class="cls-4" d="M134.06,358.26c13.74-15.67,27.33-31.47,40.93-47.26-13.74,15.67-27.33,31.47-40.93,47.26h0Z"/>
        <path class="cls-4" d="M199.08,368.53c31.2-35.64,62.54-71.16,93.61-106.91,9.14-10.51,18.21-21.09,27.32-31.64l-93.51,106.78c-16.54,6.89-40.86-16.49-51.51-25.78l-27.37,31.8c10.63,9.27,34.94,32.64,51.45,25.74h0Z"/>
        <path class="cls-4" d="M127.64,302.35l1.1,7.23,27.34-31.83c-1.73-11.35-5.82-45.52,9.07-50.42l154.85,2.65-27.49,31.83-154.7-2.61c-13.27,4.36-10.72,32.52-10.18,43.15h0Z"/>
        <path class="cls-4" d="M128.18,309.58l-22.01-.38,27.32-31.84c7.53.13,15.06.27,22.6.4l-27.34,31.83h-.57Z"/>
        <polygon class="cls-4" points="106.17 309.19 87.31 185.36 114.59 153.41 133.49 277.36 106.17 309.19 106.17 309.19"/>
        <polygon class="cls-4" points="87.31 185.36 109.87 185.77 137.16 153.83 114.59 153.41 87.31 185.36 87.31 185.36"/>
        <path class="cls-4" d="M134.46,236.84l154.64,2.78,27.48-31.86-154.79-2.82c-16.43-6.51-22.31-35.88-24.63-51.12l-27.29,31.95c2.32,15.22,8.18,44.57,24.6,51.07h0Z"/>
        <path class="cls-4" d="M123.09,148.14l-4.4,5.01c12.04-14.1,23.3-30.5,37.81-42.2,8.12-6.55,22.8-18.38,34.02-12.95l126.07,109.77-27.48,31.86-125.92-109.64c-13.23-6.41-31.18,10.13-40.09,18.16h0Z"/>
        <polygon class="cls-4" points="118.69 153.14 100.35 137.15 127.63 105.16 145.98 121.17 118.69 153.14 118.69 153.14"/>
        <path class="cls-4" d="M100.35,137.15c34.41-39.09,68.92-78.06,102.7-117.69-34.41,39.09-68.92,78.06-102.7,117.69h0Z"/>
        <polygon class="cls-4" points="175.73 51.52 194.04 67.49 221.39 35.46 203.06 19.47 175.73 51.52 175.73 51.52"/>
        <path class="cls-4" d="M176.84,114.54l125.76,109.67,27.49-31.87-125.9-109.8c-8.35-14.44,8.07-36.71,17.2-47.09-12.06,14.13-26.37,27.84-36.12,43.72-5.73,9.34-14.79,24.38-8.43,35.36h0Z"/>
        <path class="cls-4" d="M232.59,54.68l-7.31-.14,27.38-32.04c14.54.28,46.31,2.08,53.82,17.5l23.62,152.34-27.49,31.87-23.56-152.2c-6.77-13.9-33.2-15.8-46.45-17.33h0Z"/>
        <path class="cls-4" d="M225.19,53.99l-3.31-21.58L249.25.35c1.14,7.39,2.27,14.77,3.41,22.16l-27.38,32.04-.09-.56h0Z"/>
        <polygon class="cls-4" points="221.88 32.4 347.01 34.84 374.5 2.82 249.25 .35 221.88 32.4 221.88 32.4"/>
        <polygon class="cls-4" points="347.01 34.84 350.43 56.96 377.92 24.95 374.5 2.82 347.01 34.84 347.01 34.84"/>
        <path class="cls-4" d="M301.66,72.51l23.43,152.11,27.51-31.86-23.49-152.25c3.97-15.42,36.63-15.79,48.81-15.55l-27.5,32c-12.19-.24-44.78.14-48.76,15.55h0Z"/>
        <path class="cls-4" d="M391.71,76.36l-5.95-5.19,27.53-31.98c8.23,7.18,15.65,15.13,22.19,23.9,4.45,5.97,12.27,15.84,9.51,23.91-30.89,35.36-61.89,70.62-92.67,106.07-9.11,10.49-18.16,21.03-27.24,31.54l92.33-105.68c4.81-13.94-17.28-33.91-25.71-42.58h0Z"/>
        <path class="cls-4" d="M385.77,71.17c13.76-15.69,27.37-31.51,40.99-47.33-13.76,15.69-27.37,31.51-40.99,47.33h0Z"/>
        <polygon class="cls-4" points="399.21 55.84 501.04 144.64 528.7 112.75 426.75 23.84 399.21 55.84 399.21 55.84"/>
        <path class="cls-4" d="M501.04,144.64l-13.42,15.35c13.68-15.77,27.35-31.53,41.08-47.24l-27.66,31.89h0Z"/>
        <path class="cls-4" d="M435.8,135.03l-92.39,105.57c33.62-38.88,67.51-77.52,101.36-116.2,6.21-7.09,12.41-14.18,18.62-21.28,8.11-3.4,18.25,2.45,25.17,6.26,9.59,5.28,18.47,11.56,26.71,18.74l-27.65,31.88c-8.23-7.17-17.1-13.44-26.68-18.72-6.91-3.81-17.04-9.65-25.14-6.25h0Z"/>
        <path class="cls-4" d="M508.9,208.68l-2.43-15.64,27.68-31.85c1.75,11.27,8.05,45.02-7.82,50.24l-155.38-2.69-27.53,31.84,155.23,2.65c11.36-3.75,10.35-25.37,10.26-34.56h0Z"/>
        <polygon class="cls-4" points="506.47 193.05 528.89 193.46 556.59 161.62 534.15 161.2 506.47 193.05 506.47 193.05"/>
        <polygon class="cls-4" points="528.89 193.46 548.1 316.9 575.85 285.17 556.59 161.62 528.89 193.46 528.89 193.46"/>
        <path class="cls-4" d="M527.26,316.54l-1.6-.03,27.73-31.73c7.49.13,14.97.26,22.46.4l-27.75,31.72-20.84-.36h0Z"/>
        <path class="cls-4" d="M502.05,265.55l-155.22-2.76,27.54-31.82,155.37,2.8c17.26,6.84,21.22,35.42,23.64,51.01l-27.73,31.73c-2.42-15.55-6.37-44.15-23.61-50.96h0Z"/>
        <path class="cls-4" d="M507.51,360.03c12.38-14.22,24.8-28.4,37.22-42.59-8.38,9.62-27.94,31.62-43.47,24.01l-126.88-110.48-27.54,31.82,126.73,110.35c11.2,5.46,25.89-6.53,33.95-13.11h0Z"/>
        <polygon class="cls-4" points="517 349.14 535.31 365.11 563.06 333.43 544.73 317.44 517 349.14 517 349.14"/>
        <polygon class="cls-4" points="460.4 451.16 442.07 435.17 469.74 403.52 488.1 419.53 460.4 451.16 460.4 451.16"/>
        <path class="cls-4" d="M535.31,365.11l-74.91,86.05c34.31-39.17,68.47-78.46,102.66-117.73l-27.75,31.68h0Z"/>
        <path class="cls-4" d="M563.06,333.43l-74.96,86.11-18.36-16.01c9.04-10.38,26.78-31.28,17.92-46.56l-126.78-110.57,23.87,153.81c7.94,16.3,38.83,16.18,53.75,16.42l3.45,22.28-125.6-2.08c-1.14-7.43-2.29-14.86-3.43-22.3,12.38.21,44.89,1.85,49.14-14.76l-23.7-153.78-93.39,106.95c-2.51,7.15,3.66,15.72,7.49,21.23,7.1,10.21,15.59,17.97,24.93,26.12l-13.55,15.5-102.42-89.32,13.57-15.48c10.64,9.28,34.98,32.67,51.51,25.78l93.51-106.78-154.85-2.65c-14.88,4.9-10.8,39.08-9.07,50.42-7.53-.13-15.06-.27-22.6-.4l-18.91-123.95,22.58.42c2.33,15.24,8.2,44.61,24.63,51.12l154.79,2.82-126.07-109.77c-14.78-7.12-35.85,13.3-44.54,23.18l-18.36-16.01L203.06,19.47l18.33,15.99c-9.15,10.4-25.53,32.63-17.2,47.09l125.9,109.8-23.62-152.34c-7.51-15.42-39.28-17.22-53.82-17.5-1.14-7.39-2.27-14.77-3.41-22.16l125.25,2.47,3.42,22.14c-12.2-.24-44.82.13-48.81,15.55l23.49,152.25,92.4-105.75c2.79-8.05-5.08-17.96-9.51-23.91-6.54-8.78-13.96-16.73-22.19-23.9l13.45-15.34,101.95,88.91-13.43,15.37c-8.24-7.18-17.12-13.45-26.71-18.74-6.92-3.81-17.06-9.66-25.17-6.26l-92.45,105.64,155.38,2.69c15.87-5.2,9.58-38.98,7.82-50.24l22.44.42,19.26,123.56c-7.49-.13-14.97-.26-22.46-.4-2.42-15.57-6.38-44.19-23.64-51.01l-155.37-2.8,126.88,110.48c15.53,7.61,35.09-14.39,43.47-24.01l18.33,15.99h0Z"/>
        <path class="cls-4" d="M460.4,451.16l74.91-86.05-18.31-15.97c-8.37,9.61-27.92,31.6-43.43,24l-126.73-110.35,155.22,2.76c17.24,6.83,21.19,35.39,23.61,50.96,7.48.13,14.96.26,22.44.39l-19.21-123.44-22.42-.41c1.75,11.27,8.03,44.98-7.83,50.2l-155.23-2.65,92.39-105.57c8.1-3.4,18.23,2.44,25.14,6.25,9.58,5.28,18.45,11.54,26.68,18.72l13.42-15.35-101.83-88.8-13.44,15.33c8.22,7.17,15.63,15.11,22.16,23.88,4.44,5.97,12.26,15.83,9.5,23.89l-92.33,105.68-23.43-152.11c3.97-15.41,36.59-15.78,48.76-15.55l-3.42-22.12-125.13-2.44c1.13,7.38,2.26,14.76,3.4,22.14,14.52.28,46.26,2.07,53.76,17.48l23.56,152.2-125.76-109.67c-8.33-14.44,8.07-36.67,17.2-47.05l-18.31-15.97-75.38,85.63,18.34,15.99c8.68-9.87,29.74-30.28,44.5-23.17l125.92,109.64-154.64-2.78c-16.41-6.5-22.28-35.85-24.6-51.07l-22.56-.41,18.86,123.83c7.52.13,15.05.26,22.57.39-1.73-11.35-5.8-45.48,9.08-50.38l154.7,2.61-93.44,106.71c-16.52,6.88-40.82-16.46-51.45-25.74l-13.56,15.47,102.3,89.22,13.54-15.49c-9.34-8.14-17.81-15.89-24.9-26.09-3.84-5.52-9.96-14.05-7.47-21.21l93.33-106.88,23.64,153.63c-4.27,16.6-36.7,14.97-49.09,14.76,1.14,7.43,2.28,14.85,3.42,22.28l125.48,2.04-3.44-22.26c-14.9-.25-45.75-.11-53.69-16.4l-23.81-153.66,126.63,110.44c8.84,15.28-8.87,36.15-17.91,46.52l18.34,15.99h0Z"/>
      </g>
      <g>
        <text class="cls-2" transform="translate(233.52 297.23)"><tspan x="0" y="0">fagulha</tspan></text>
        <text class="cls-3" transform="translate(169.78 211.23)"><tspan x="0" y="0">método</tspan></text>
      </g>
      <g>
        <g>
          <g>
            <g>
              <path class="cls-5" d="M37.99,238.41h1.1v-.36c.06-.65.26-1.99.82-2.16,0,0,0,0,0,0h17.87s0,0,0,0c.46.14.67,1.05.77,1.74v.78h1.1v-6.15h-1.1v.78c-.1.69-.31,1.6-.77,1.74,0,0,0,0,0,0h-17.87s0,0,0,0c-.56-.17-.76-1.5-.82-2.16v-.36h-1.1v6.15Z"/>
              <path class="cls-5" d="M51.91,246.18v-1.08h0v-.03h-.36c-.65-.06-1.99-.26-2.16-.82,0,0,0,0,0,0v-17.87s0,0,0,0c.14-.46,1.05-.67,1.74-.77h.78v-.08h0v-1.03h-6.15v1.1h.78c.69.1,1.6.31,1.74.77,0,0,0,0,0,0v17.87s0,0,0,0c-.17.56-1.5.76-2.16.82h-.36v1.1h6.15Z"/>
            </g>
            <g>
              <path class="cls-5" d="M43.34,245.18l.76-.76h0s.02-.02.02-.02l-.25-.25c-.42-.51-1.22-1.59-.94-2.11,0,0,0,0,0,0l12.64-12.64s0,0,0,0c.42-.23,1.22.27,1.77.68l.55.55.06-.06h0l.73-.73-4.35-4.35-.78.78.55.55c.42.56.91,1.35.68,1.77,0,0,0,0,0,0l-12.64,12.64s0,0,0,0c-.51.28-1.6-.53-2.11-.94l-.25-.25-.78.78,4.35,4.35Z"/>
              <path class="cls-5" d="M58.67,240.83l-.76-.76h0s-.02-.02-.02-.02l-.25.25c-.51.42-1.59,1.22-2.11.94,0,0,0,0,0,0l-12.64-12.64s0,0,0,0c-.23-.42.27-1.22.68-1.77l.55-.55-.06-.06h0l-.73-.73-4.35,4.35.78.78.55-.55c.56-.42,1.35-.91,1.77-.68,0,0,0,0,0,0l12.64,12.64s0,0,0,0c.28.51-.53,1.6-.94,2.11l-.25.25.78.78,4.35-4.35Z"/>
            </g>
          </g>
          <g>
            <path class="cls-5" d="M40.67,207.93c0-.81.17-1.45.81-2.19l.9.59c-.36.38-.59.86-.59,1.47,0,1.31.9,1.97,2.45,1.97h1.05v-2.33h1.09v5.49h-1.09v-1.9h-1.05c-2.23,0-3.56-1.19-3.56-3.11ZM56.75,209.78v1.26h-9.79v-1.26h9.79Z"/>
            <path class="cls-5" d="M54.71,198.45h1.4c.69.93.93,2.02.93,3.3,0,1.97-1.35,4.01-3.82,4.01s-3.94-2.09-3.94-4.44c0-1.33.36-2.3.64-2.87h1.47c-.57.86-.93,1.95-.93,2.87,0,1.88,1.14,3.14,2.78,3.14s2.64-1.26,2.64-3.14c0-.95-.55-2.14-1.16-2.87ZM46.11,200.85c0,1.45.67,2.52,1.71,3.54l-.9.83c-1.28-1.19-1.92-2.52-1.92-4.42,0-2.33,1.12-4.18,3.68-4.18h8.08v1.24h-8.03c-1.71,0-2.61,1.31-2.61,2.99Z"/>
            <path class="cls-5" d="M53.88,184.91h1.73c.83.86,1.43,2.04,1.43,3.4,0,3.04-2.35,5.11-6.03,5.11s-6.01-2.07-6.01-5.11c0-1.33.31-2.47.95-3.4h1.52c-.78.83-1.35,2.07-1.35,3.3,0,2.54,2.11,3.9,4.89,3.9s4.82-1.47,4.82-4.01c0-1.21-.97-2.4-1.95-3.18ZM59.68,192.75l-1-.71c1.19-1,1.57-2.38,1.57-3.82,0-2.07-1-3.9-3.59-3.9h-11.38v-1.26h11.38c3.49,0,4.75,2.38,4.75,5.15,0,1.95-.36,3.18-1.73,4.54Z"/>
            <path class="cls-5" d="M53.57,179.24h-8.29v-1.28h7.98c1.64,0,2.47-1.09,2.47-2.76,0-.95-.78-2.3-1.52-3.06h1.57c.55.76,1.24,2,1.24,3.3,0,2.11-1.52,3.8-3.44,3.8ZM56.75,171.54h-11.47v-1.28h11.47v1.28Z"/>
            <path class="cls-5" d="M56.75,165.17v1.24h-15.84v-1.24h15.84Z"/>
            <path class="cls-5" d="M40.91,160.09h15.84v1.24h-15.84v-1.24ZM46.11,156.36c0,1.16.57,2.33,1.31,3.14h-1.4c-.81-1.19-1.07-2.09-1.07-3.54,0-2.33,1.14-3.61,3.73-3.61h8.08v1.24h-7.82c-2.21,0-2.83,1.12-2.83,2.78Z"/>
            <path class="cls-5" d="M54.71,141.8h1.4c.69.93.93,2.02.93,3.3,0,1.97-1.35,4.01-3.82,4.01s-3.94-2.09-3.94-4.44c0-1.33.36-2.3.64-2.87h1.47c-.57.86-.93,1.95-.93,2.87,0,1.88,1.14,3.14,2.78,3.14s2.64-1.26,2.64-3.14c0-.95-.55-2.14-1.16-2.87ZM46.11,144.2c0,1.45.67,2.52,1.71,3.54l-.9.83c-1.28-1.19-1.92-2.52-1.92-4.42,0-2.33,1.12-4.18,3.68-4.18h8.08v1.24h-8.03c-1.71,0-2.61,1.31-2.61,2.99Z"/>
          </g>
          <g>
            <path class="cls-5" d="M45.02,325.74h1.05c.33,5.13,9.22,5.3,9.86,0h1.09c-.26,3.06-2.66,5.15-6.01,5.15s-5.82-2.11-5.99-5.15ZM46.06,325.15h-1.07c.14-3.3,2.85-5.13,6.08-5.13h.33v8.98s-.4.07-.97,0v-7.72c-1.88.02-4.2,1.21-4.37,3.87ZM57.04,325.15h-1.07v-.02c0-1.45-.55-2.78-1.59-3.75l.81-.64c1.19,1.14,1.83,2.57,1.85,4.42Z"/>
            <path class="cls-5" d="M55.99,313.7h1.05c-.07,1.71-.62,3.06-1.83,4.13l-.9-.74c.88-.69,1.59-1.92,1.69-3.4ZM57.04,313.11h-1.05c-.09-1.73-1.07-2.78-2.33-2.78-3.14,0-1.35,7.25-5.49,7.25-1.71,0-3.11-1.4-3.18-3.87h1.05c.07,1.66.95,2.64,2.09,2.64,2.87,0,1.12-7.22,5.53-7.22,1.78,0,3.25,1.33,3.37,3.99ZM46.06,313.11h-1.05c.09-1.76.81-2.95,1.66-3.73l.88.69c-.83.62-1.4,1.71-1.5,3.04Z"/>
            <path class="cls-5" d="M42.14,305.69v-1.26h3.14v-2.33h1.09v5.49h-1.09v-1.9h-3.14ZM54.54,305.69h-7.58v-1.26h7.39c.93,0,1.57-.38,1.57-1.19,0-.55-.26-1.02-.55-1.28l.95-.48c.43.45.71,1,.71,1.95,0,1.52-.93,2.26-2.49,2.26Z"/>
            <path class="cls-5" d="M53.57,299.4h-8.29v-1.28h7.98c1.64,0,2.47-1.09,2.47-2.76,0-.95-.78-2.3-1.52-3.06h1.57c.55.76,1.24,2,1.24,3.3,0,2.11-1.52,3.8-3.44,3.8ZM56.75,291.7h-11.47v-1.28h11.47v1.28Z"/>
            <path class="cls-5" d="M51.03,285.91c2.78,0,4.7-1.45,4.7-4.01,0-1.24-.43-2.4-1.19-3.18h1.59c.67.88.9,2.02.9,3.4,0,3.04-2.33,5.13-6.01,5.13s-6.03-2.07-6.03-5.13c0-1.31.4-2.49,1.07-3.4h1.62c-.78.78-1.33,2.07-1.33,3.23,0,2.57,1.9,3.97,4.68,3.97ZM56.75,276.88v1.24h-15.84v-1.24h15.84Z"/>
            <path class="cls-5" d="M43.48,273.01h-1.88v-1.24h1.88v1.24ZM56.75,271.77v1.24h-11.47v-1.24h11.47Z"/>
            <path class="cls-5" d="M45,263.41h1.14c.17,2.47,2.42,3.85,4.87,3.85s4.73-1.38,4.92-3.85h1.12c-.17,3.18-2.78,5.15-6.03,5.15s-5.84-1.97-6.01-5.15ZM57.04,262.77h-1.12c-.14-2.52-2.45-3.9-4.92-3.9s-4.73,1.38-4.89,3.9h-1.12c.14-3.23,2.76-5.23,6.01-5.23s5.89,2,6.03,5.23Z"/>
            <rect class="cls-5" x="42.83" y="291.12" width="1.28" height="5.44" transform="translate(-39.99 8.77) rotate(-7.9)"/>
          </g>
        </g>
        <g>
          <g>
            <path class="cls-5" d="M37.99,238.41h1.1v-.36c.06-.65.26-1.99.82-2.16,0,0,0,0,0,0h17.87s0,0,0,0c.46.14.67,1.05.77,1.74v.78h1.1v-6.15h-1.1v.78c-.1.69-.31,1.6-.77,1.74,0,0,0,0,0,0h-17.87s0,0,0,0c-.56-.17-.76-1.5-.82-2.16v-.36h-1.1v6.15Z"/>
            <path class="cls-5" d="M51.91,246.18v-1.08h0v-.03h-.36c-.65-.06-1.99-.26-2.16-.82,0,0,0,0,0,0v-17.87s0,0,0,0c.14-.46,1.05-.67,1.74-.77h.78v-.08h0v-1.03h-6.15v1.1h.78c.69.1,1.6.31,1.74.77,0,0,0,0,0,0v17.87s0,0,0,0c-.17.56-1.5.76-2.16.82h-.36v1.1h6.15Z"/>
          </g>
          <g>
            <path class="cls-5" d="M43.34,245.18l.76-.76h0s.02-.02.02-.02l-.25-.25c-.42-.51-1.22-1.59-.94-2.11,0,0,0,0,0,0l12.64-12.64s0,0,0,0c.42-.23,1.22.27,1.77.68l.55.55.06-.06h0l.73-.73-4.35-4.35-.78.78.55.55c.42.56.91,1.35.68,1.77,0,0,0,0,0,0l-12.64,12.64s0,0,0,0c-.51.28-1.6-.53-2.11-.94l-.25-.25-.78.78,4.35,4.35Z"/>
            <path class="cls-5" d="M58.67,240.83l-.76-.76h0s-.02-.02-.02-.02l-.25.25c-.51.42-1.59,1.22-2.11.94,0,0,0,0,0,0l-12.64-12.64s0,0,0,0c-.23-.42.27-1.22.68-1.77l.55-.55-.06-.06h0l-.73-.73-4.35,4.35.78.78.55-.55c.56-.42,1.35-.91,1.77-.68,0,0,0,0,0,0l12.64,12.64s0,0,0,0c.28.51-.53,1.6-.94,2.11l-.25.25.78.78,4.35-4.35Z"/>
          </g>
        </g>
      </g>
    </g>
  </g>
</svg>